Coordinates
version=1
nRows=7
nColumns=42
inDegrees=yes

Units are S.I. units (second, meters, Newtons, ...)
If the header above contains a line with 'inDegrees', this indicates whether rotational values are in degrees (yes) or radians (no).

endheader
time	pelvis_tilt	pelvis_list	pelvis_rotation	pelvis_tx	pelvis_ty	pelvis_tz	hip_flexion_r	hip_adduction_r	hip_rotation_r	knee_angle_r	knee_adduction_r	knee_angle_r_beta	ankle_angle_r	subtalar_angle_r	mtp_angle_r	hip_flexion_l	hip_adduction_l	hip_rotation_l	knee_angle_l	knee_adduction_l	knee_angle_l_beta	ankle_angle_l	subtalar_angle_l	mtp_angle_l	lumbar_extension	lumbar_bending	lumbar_rotation	arm_flex_r	arm_add_r	arm_rot_r	elbow_flex_r	pro_sup_r	wrist_flex_r	wrist_dev_r	arm_flex_l	arm_add_l	arm_rot_l	elbow_flex_l	pro_sup_l	wrist_flex_l	wrist_dev_l
      0.27000000	     21.23352818	      1.65630080	     -0.95948261	     -1.79296712	      0.95613363	      0.14427524	    -19.68852167	     -1.34995585	    -30.18939781	     19.07912662	    -13.66031462	      0.33299358	     21.11320514	     37.09597536	     -9.30283543	     -3.56346340	      1.44042757	     -8.63868812	     20.67346676	     -2.89997085	      0.36082006	      8.92072953	    -13.50333873	     -9.30283543	    -38.71331336	     -3.12922719	      2.60843471	     18.78318908	     -9.26831308	     -6.74432616	     57.76003126	     90.00000001	      0.00000000	      0.00000000	      1.01470924	    -14.26397204	      9.13529007	     52.60308835	     90.00000001	      0.00000000	      0.00000000
      0.28000000	     21.36291512	      1.66936396	     -0.97582050	     -1.78813764	      0.95546376	      0.14262418	    -20.20670165	     -1.48511109	    -30.09375675	     19.03904302	    -13.61951679	      0.33229399	     21.33481827	     37.05474788	     -9.28970956	     -3.67318790	      1.76011846	     -8.03314292	     21.21109665	     -3.13310030	      0.37020347	      8.85024910	    -13.52858307	     -9.28970956	    -38.70730885	     -3.15537262	      2.76010970	     18.46395689	     -9.30033940	     -6.76516061	     57.48395630	     90.00000001	      0.00000000	      0.00000000	      0.92193428	    -14.32839206	      9.07551126	     52.52649995	     90.00000001	      0.00000000	      0.00000000
      0.29000000	     21.47917906	      1.65915555	     -1.01044981	     -1.78330096	      0.95483591	      0.14107694	    -20.70241860	     -1.55399906	    -29.87987884	     18.98716039	    -13.62183596	      0.33138846	     21.90223891	     36.93124981	     -9.25170590	     -3.83528677	      2.05872608	     -6.90270155	     21.79626892	     -3.19452556	      0.38041666	      8.53315381	    -14.36568255	     -9.25170590	    -38.66450463	     -3.22499809	      2.84985247	     18.28783870	     -9.30769310	     -6.83776327	     56.68774855	     90.00000001	      0.00000000	      0.00000000	      0.85351397	    -14.36863589	      8.90181394	     52.33677433	     90.00000001	      0.00000000	      0.00000000
      0.30000000	     21.57819155	      1.77000938	     -1.00318618	     -1.77849045	      0.95420173	      0.13928247	    -21.14008412	     -1.76151673	    -29.70391061	     19.05335038	    -13.64173373	      0.33254370	     22.23031041	     36.73104819	     -9.18747983	     -3.99761837	      2.52864190	     -5.43614532	     22.40050837	     -3.16502950	      0.39096263	      7.75985594	    -15.87238207	     -9.18747983	    -38.62346753	     -3.36241277	      2.86429019	     18.12420162	     -9.29483128	     -7.04244044	     55.66452479	     90.00000001	      0.00000000	      0.00000000	      0.81575059	    -14.36071299	      8.56414894	     52.14744930	     90.00000001	      0.00000000	      0.00000000
      0.31000000	     21.75979190	      1.85976070	     -1.09438833	     -1.77350925	      0.95361010	      0.13760951	    -21.63074812	     -1.96517644	    -29.56332078	     19.13806407	    -13.78328369	      0.33402223	     22.27351153	     36.65187704	     -9.18133153	     -4.19447691	      2.91738035	     -4.82510834	     23.13299203	     -3.30507455	      0.40374688	      7.67483361	    -15.85903595	     -9.18133153	    -38.65785927	     -3.54383114	      3.02159613	     17.66418623	     -9.40088788	     -7.10165658	     55.42942120	     90.00000001	      0.00000000	      0.00000000	      0.65783125	    -14.44564450	      8.49959942	     52.08733759	     90.00000001	      0.00000000	      0.00000000
      0.32000000	     21.86370514	      2.02906118	     -1.03917626	     -1.76870678	      0.95299062	      0.13566977	    -22.09978508	     -2.22652820	    -29.39142784	     19.18570499	    -13.71435037	      0.33485372	     22.84492834	     36.33515574	     -9.13462244	     -4.31715249	      3.38001470	     -3.27743207	     23.94625127	     -3.06872254	      0.41794093	      7.20843099	    -17.35784936	     -9.13462244	    -38.64209948	     -3.72135084	      3.00215261	     17.51014318	     -9.45587275	     -7.34372428	     54.41755457	     90.00000001	      0.00000000	      0.00000000	      0.74279669	    -14.48122075	      8.13900097	     52.00477295	     90.00000001	      0.00000000	      0.00000000
      0.33000000	     22.01627266	      2.21406587	     -1.05412041	     -1.76381075	      0.95242096	      0.13376477	    -22.56034053	     -2.52644547	    -29.25740040	     19.31943408	    -13.75755910	      0.33718773	     23.12464403	     36.05007999	     -9.08253755	     -4.49669579	      3.83647318	     -2.24138609	     24.70335614	     -2.93423227	      0.43115490	      6.95990879	    -17.89929355	     -9.08253755	    -38.66658399	     -3.95221713	      3.02466902	     17.25295367	     -9.49296821	     -7.61378528	     53.55106103	     90.00000001	      0.00000000	      0.00000000	      0.72049972	    -14.49787297	      7.75075935	     51.92588898	     90.00000001	      0.00000000	      0.00000000
